<svg width="17" height="17" viewBox="0 0 17 17" fill="none" xmlns="http://www.w3.org/2000/svg">
<mask id="mask0" mask-type="alpha" maskUnits="userSpaceOnUse" x="1" y="1" width="15" height="15">
<path fill-rule="evenodd" clip-rule="evenodd" d="M8.49998 1.4165C4.58998 1.4165 1.41665 4.58984 1.41665 8.49984C1.41665 12.4098 4.58998 15.5832 8.49998 15.5832C12.41 15.5832 15.5833 12.4098 15.5833 8.49984C15.5833 4.58984 12.41 1.4165 8.49998 1.4165ZM7.13998 7.69231C7.1754 7.45856 7.25332 7.25314 7.35248 7.07606C7.45165 6.89897 7.59332 6.75022 7.7704 6.63689C7.9404 6.53064 8.1529 6.48106 8.41498 6.47397C8.5779 6.48106 8.72665 6.50939 8.86123 6.56606C9.0029 6.62981 9.1304 6.71481 9.22957 6.82106C9.32873 6.92731 9.40665 7.05481 9.4704 7.19647C9.53415 7.33814 9.56248 7.49397 9.56957 7.64981H10.8375C10.8233 7.31689 10.7596 7.01231 10.6391 6.73606C10.5187 6.45981 10.3558 6.21897 10.1433 6.02064C9.93082 5.82231 9.67582 5.66647 9.37832 5.55314C9.08082 5.43981 8.75498 5.39022 8.39373 5.39022C7.93332 5.39022 7.52957 5.46814 7.18957 5.63106C6.84957 5.79397 6.56623 6.00647 6.33957 6.28272C6.1129 6.55897 5.9429 6.87772 5.83665 7.24606C5.7304 7.61439 5.66665 7.99689 5.66665 8.40772V8.59897C5.66665 9.00981 5.72332 9.39231 5.82957 9.76064C5.93582 10.129 6.10582 10.4477 6.33248 10.7169C6.55915 10.9861 6.84248 11.2056 7.18248 11.3615C7.52248 11.5173 7.92623 11.6023 8.38665 11.6023C8.71957 11.6023 9.03123 11.5456 9.32165 11.4394C9.61207 11.3331 9.86707 11.1844 10.0866 10.9931C10.3062 10.8019 10.4833 10.5823 10.6108 10.3273C10.7383 10.0723 10.8162 9.80314 10.8233 9.51272H9.5554C9.54832 9.66147 9.5129 9.79606 9.44915 9.92356C9.3854 10.0511 9.3004 10.1573 9.19415 10.2494C9.0879 10.3415 8.96748 10.4123 8.82582 10.4619C8.69123 10.5115 8.54957 10.5256 8.40082 10.5327C8.14582 10.5256 7.93332 10.4761 7.7704 10.3698C7.59332 10.2565 7.45165 10.1077 7.35248 9.93064C7.25332 9.75356 7.1754 9.54106 7.13998 9.30731C7.10457 9.07356 7.08332 8.83272 7.08332 8.59897V8.40772C7.08332 8.15981 7.10457 7.92606 7.13998 7.69231ZM2.83332 8.49984C2.83332 11.6236 5.37623 14.1665 8.49998 14.1665C11.6237 14.1665 14.1666 11.6236 14.1666 8.49984C14.1666 5.37609 11.6237 2.83317 8.49998 2.83317C5.37623 2.83317 2.83332 5.37609 2.83332 8.49984Z" fill="white"/>
</mask>
<g mask="url(#mask0)">
<rect x="-1.52588e-05" width="17" height="17" fill="#8A8A8A"/>
</g>
</svg>
