<svg width="35" height="34" viewBox="0 0 35 34" fill="none" xmlns="http://www.w3.org/2000/svg">
<path d="M34.1319 2.51985C34.1319 3.55611 33.2918 4.39616 32.2556 4.39616H6.4275C5.93333 4.39616 5.50093 4.58147 5.1303 4.9521C4.79056 5.29184 4.62069 5.70879 4.62069 6.20296V28.4406C4.62069 28.9348 4.79056 29.3672 5.1303 29.7378C5.50093 30.0775 5.93333 30.2474 6.4275 30.2474H32.2556C33.2918 30.2474 34.1319 31.0875 34.1319 32.1237C34.1319 33.16 33.2918 34 32.2556 34H6.4275C4.88322 34 3.57058 33.4595 2.48958 32.3785C1.40859 31.2975 0.868088 29.9849 0.868088 28.4406V6.20296C0.868088 4.65868 1.40859 3.34604 2.48958 2.26505C3.57058 1.18405 4.88322 0.643555 6.4275 0.643555H32.2556C33.2918 0.643555 34.1319 1.4836 34.1319 2.51985Z" fill="white"/>
<path d="M23.764 23.4526C24.8003 23.4526 25.6383 24.2927 25.6383 25.3289C25.6383 26.3652 24.7983 27.2052 23.762 27.2052H9.84804C8.81179 27.2052 7.97174 26.3652 7.97174 25.3289C7.97174 24.2927 8.80626 23.4526 9.84252 23.4526C13.0973 23.4526 19.8297 23.4526 23.764 23.4526Z" fill="white"/>
</svg>
